HIERARCHY
ROOT joint_Root
{
	OFFSET 0.0 0.0 0.0
	CHANNELS 6 Xposition Yposition Zposition Zrotation Xrotation Yrotation 
	JOINT Hips
	{
		OFFSET -0.726466 93.3139 -2.00062
		CHANNELS 6 Xposition Yposition Zposition Zrotation Xrotation Yrotation 
		JOINT Spine
		{
			OFFSET 15.7357 0.0 0.0
			CHANNELS 6 Xposition Yposition Zposition Zrotation Xrotation Yrotation 
			JOINT Chest
			{
				OFFSET 8.98455 -0.406207 0.0
				CHANNELS 6 Xposition Yposition Zposition Zrotation Xrotation Yrotation 
				JOINT Neck
				{
					OFFSET 16.3773 0.0 0.0
					CHANNELS 6 Xposition Yposition Zposition Zrotation Xrotation Yrotation 
					JOINT Head
					{
						OFFSET 6.45672 0.0 0.0
						CHANNELS 6 Xposition Yposition Zposition Zrotation Xrotation Yrotation 
						End Site
						{
							OFFSET 0.0 0.0 0.0
						}
					}
				}
				JOINT Shoulder_L
				{
					OFFSET 12.9942 -0.242716 4.98039
					CHANNELS 6 Xposition Yposition Zposition Zrotation Xrotation Yrotation 
					JOINT UpperArm_L
					{
						OFFSET 5.34809 0.0 0.0
						CHANNELS 6 Xposition Yposition Zposition Zrotation Xrotation Yrotation 
						JOINT LowerArm_L
						{
							OFFSET 24.3286 1.87007e-05 0.0
							CHANNELS 6 Xposition Yposition Zposition Zrotation Xrotation Yrotation 
							JOINT Hand_L
							{
								OFFSET 22.2916 0.0 0.0
								CHANNELS 6 Xposition Yposition Zposition Zrotation Xrotation Yrotation 
								End Site
								{
									OFFSET 0.0 0.0 0.0
								}
							}
						}
					}
				}
				JOINT Shoulder_R
				{
					OFFSET 12.9945 -0.242716 -4.98039
					CHANNELS 6 Xposition Yposition Zposition Zrotation Xrotation Yrotation 
					JOINT UpperArm_R
					{
						OFFSET -5.34813 0.0 0.0
						CHANNELS 6 Xposition Yposition Zposition Zrotation Xrotation Yrotation 
						JOINT LowerArm_R
						{
							OFFSET -24.3289 0.000322201 0.0
							CHANNELS 6 Xposition Yposition Zposition Zrotation Xrotation Yrotation 
							JOINT Hand_R
							{
								OFFSET -22.2915 -0.000108084 0.0
								CHANNELS 6 Xposition Yposition Zposition Zrotation Xrotation Yrotation 
								End Site
								{
									OFFSET 0.0 0.0 0.0
								}
							}
						}
					}
				}
			}
		}
		JOINT UpperLeg_L
		{
			OFFSET -2.19248 -6.46944 0.0
			CHANNELS 6 Xposition Yposition Zposition Zrotation Xrotation Yrotation 
			JOINT LowerLeg_L
			{
				OFFSET 39.0811 0.0 -1.23785e-05
				CHANNELS 6 Xposition Yposition Zposition Zrotation Xrotation Yrotation 
				JOINT Foot_L
				{
					OFFSET 40.9854 0.0 -1.26872e-05
					CHANNELS 6 Xposition Yposition Zposition Zrotation Xrotation Yrotation 
					JOINT Toes_L
					{
						OFFSET 11.7543 0.0 0.0
						CHANNELS 6 Xposition Yposition Zposition Zrotation Xrotation Yrotation 
						End Site
						{
							OFFSET 0.0 0.0 0.0
						}
					}
				}
			}
		}
		JOINT UpperLeg_R
		{
			OFFSET -2.19251 6.46944 0.0
			CHANNELS 6 Xposition Yposition Zposition Zrotation Xrotation Yrotation 
			JOINT LowerLeg_R
			{
				OFFSET -39.0811 -0.00228153 -0.0401928
				CHANNELS 6 Xposition Yposition Zposition Zrotation Xrotation Yrotation 
				JOINT Foot_R
				{
					OFFSET -40.9854 0.0 0.0
					CHANNELS 6 Xposition Yposition Zposition Zrotation Xrotation Yrotation 
					JOINT Toes_R
					{
						OFFSET -11.7543 0.0 0.0
						CHANNELS 6 Xposition Yposition Zposition Zrotation Xrotation Yrotation 
						End Site
						{
							OFFSET 0.0 0.0 0.0
						}
					}
				}
			}
		}
	}
}
MOTION
Frames:	5
Frame Time:	0.0333333
0.000000 0.000000 0.000000 0.000000 0.000000 -0.000000 -2.203620 92.137200 0.284703 88.959800 2.425370 5.257330 15.735700 0.000005 -0.000001 77.046900 85.796700 -75.147700 8.984550 -0.406207 -0.000000 0.463308 -2.004760 3.804100 16.377300 -0.000001 -0.000001 3.848140 -1.836310 -2.886910 6.456720 -0.000001 -0.000000 7.063420 -2.488410 -1.256590 12.994200 -0.242716 4.980390 -87.622400 -6.620250 -70.193400 5.348090 -0.000007 -0.000001 -82.119800 -28.038600 -91.691300 24.328600 0.000019 0.000005 2.265010 0.234355 -84.096000 22.291600 -0.000001 0.000005 19.137100 5.585960 -10.536500 12.994500 -0.242716 -4.980390 88.575100 4.630590 -72.875700 -5.348130 -0.000001 -0.000004 -64.907700 38.792500 -14.803300 -24.328900 0.000322 -0.000009 2.169980 8.497430 -14.389000 -22.291500 -0.000108 -0.000004 9.456100 5.392970 -2.710330 -2.192480 -6.469440 -0.000000 -174.743000 -7.272120 -1.088370 39.081100 -0.000007 -0.000012 -0.129770 0.311759 22.599600 40.985400 -0.000006 -0.000013 -0.751803 6.748570 -66.410300 11.754300 -0.000000 0.000003 -0.000046 -0.000525 -16.598000 -2.192510 6.469440 -0.000001 179.429000 16.048300 -178.129000 -39.081100 -0.002282 -0.040193 -0.073772 0.211205 20.053000 -40.985400 0.000008 0.000006 3.639590 6.870250 -67.214500 -11.754300 -0.000006 -0.000006 -0.008557 -0.092521 -20.341200
0.000000 0.000000 0.000000 0.000000 0.000000 -0.000000 -2.254250 92.138700 0.241489 88.934700 2.399740 5.223370 15.735700 0.000005 -0.000001 76.995900 85.789300 -75.107800 8.984550 -0.406207 -0.000000 0.475948 -2.014450 3.782050 16.377300 -0.000001 -0.000001 3.885250 -1.787050 -2.926260 6.456720 -0.000001 -0.000000 7.056970 -2.423530 -1.267800 12.994200 -0.242716 4.980390 -87.606300 -6.628840 -70.093200 5.348090 -0.000007 -0.000001 -81.983400 -28.001100 -91.713500 24.328600 0.000019 0.000005 2.181300 0.238358 -83.767000 22.291600 -0.000001 0.000005 19.101600 5.586000 -10.538800 12.994500 -0.242716 -4.980390 88.569300 4.654700 -72.893100 -5.348130 -0.000001 -0.000004 -64.625500 38.661600 -15.127600 -24.328900 0.000322 -0.000009 2.205640 8.484150 -14.637400 -22.291500 -0.000108 -0.000004 9.488300 5.392060 -2.681140 -2.192480 -6.469440 -0.000000 -174.705000 -7.245960 -1.185310 39.081100 -0.000007 -0.000012 -0.129036 0.309465 22.634600 40.985400 -0.000006 -0.000013 -0.794818 6.687470 -66.379000 11.754300 -0.000000 0.000003 -0.000043 -0.000500 -16.597000 -2.192510 6.469440 -0.000001 179.495000 16.112300 -178.197000 -39.081100 -0.002282 -0.040193 -0.074527 0.213352 20.046200 -40.985400 0.000008 0.000006 3.661590 6.942800 -67.182800 -11.754300 -0.000006 -0.000006 -0.008466 -0.091795 -20.311500
0.000000 0.000000 0.000000 0.000000 0.000000 -0.000000 -2.293430 92.140100 0.215926 88.942200 2.353990 5.247890 15.735700 0.000005 -0.000001 77.003800 85.769000 -75.137500 8.984550 -0.406207 -0.000000 0.515472 -2.020420 3.739400 16.377300 -0.000001 -0.000001 3.990400 -1.760110 -2.977920 6.456720 -0.000001 -0.000000 7.036550 -2.350030 -1.318660 12.994200 -0.242716 4.980390 -87.594200 -6.659560 -70.085100 5.348090 -0.000007 -0.000001 -81.779200 -28.113300 -91.648900 24.328600 0.000019 0.000005 2.210290 0.250364 -83.540900 22.291600 -0.000001 0.000005 19.089000 5.585310 -10.500400 12.994500 -0.242716 -4.980390 88.565700 4.663910 -72.884300 -5.348130 -0.000001 -0.000004 -64.365800 38.667600 -15.478500 -24.328900 0.000322 -0.000009 2.201850 8.326830 -14.875200 -22.291500 -0.000108 -0.000004 9.466950 5.390190 -2.621420 -2.192480 -6.469440 -0.000000 -174.685000 -7.271210 -1.153970 39.081100 -0.000007 -0.000012 -0.128866 0.309380 22.613200 40.985400 -0.000006 -0.000013 -0.823895 6.670650 -66.357100 11.754300 -0.000000 0.000003 -0.000046 -0.000525 -16.597900 -2.192510 6.469440 -0.000001 179.499000 16.136800 -178.194000 -39.081100 -0.002282 -0.040193 -0.076020 0.217465 20.044300 -40.985400 0.000008 0.000006 3.615620 6.996970 -67.153600 -11.754300 -0.000006 -0.000006 -0.008635 -0.093136 -20.366300
0.000000 0.000000 0.000000 0.000000 0.000000 -0.000000 -2.329470 92.138700 0.180337 88.942700 2.300710 5.240870 15.735700 0.000005 -0.000001 76.887300 85.751900 -75.037100 8.984550 -0.406207 -0.000000 0.544938 -2.043430 3.707860 16.377300 -0.000001 -0.000001 4.069580 -1.673680 -3.047410 6.456720 -0.000001 -0.000000 7.102520 -2.272170 -1.361810 12.994200 -0.242716 4.980390 -87.593800 -6.651720 -70.060600 5.348090 -0.000007 -0.000001 -81.604500 -28.301800 -91.601900 24.328600 0.000019 0.000005 2.442730 0.281565 -83.428900 22.291600 -0.000001 0.000005 18.904600 5.583990 -10.428000 12.994500 -0.242716 -4.980390 88.563600 4.667180 -72.872100 -5.348130 -0.000001 -0.000004 -64.162000 38.717000 -15.820800 -24.328900 0.000322 -0.000009 2.209910 8.248250 -15.062200 -22.291500 -0.000108 -0.000004 9.527580 5.392140 -2.683570 -2.192480 -6.469440 -0.000000 -174.668000 -7.220680 -1.200250 39.081100 -0.000007 -0.000012 -0.130863 0.313875 22.632800 40.985400 -0.000006 -0.000013 -0.872085 6.590940 -66.333200 11.754300 -0.000000 0.000003 -0.000047 -0.000535 -16.598400 -2.192510 6.469440 -0.000001 179.514000 16.106900 -178.227000 -39.081100 -0.002282 -0.040193 -0.078817 0.225163 20.041700 -40.985400 0.000008 0.000006 3.486070 7.082980 -67.109000 -11.754300 -0.000006 -0.000006 -0.008334 -0.090740 -20.268400
0.000000 0.000000 0.000000 0.000000 0.000000 -0.000000 -2.349960 92.144500 0.138598 88.902300 2.186220 5.231720 15.735700 0.000005 -0.000001 76.954100 85.737300 -75.110100 8.984550 -0.406207 -0.000000 0.575418 -2.039480 3.695830 16.377300 -0.000001 -0.000001 4.262490 -1.620770 -3.116580 6.456720 -0.000001 -0.000000 7.057180 -2.209600 -1.406320 12.994200 -0.242716 4.980390 -87.573500 -6.689440 -70.009900 5.348090 -0.000007 -0.000001 -81.565900 -28.444300 -91.404000 24.328600 0.000019 0.000005 2.400330 0.271242 -83.556800 22.291600 -0.000001 0.000005 18.844000 5.582730 -10.359200 12.994500 -0.242716 -4.980390 88.564200 4.661950 -72.861300 -5.348130 -0.000001 -0.000004 -64.066100 38.806400 -16.107200 -24.328900 0.000322 -0.000009 2.194760 8.082080 -15.255000 -22.291500 -0.000108 -0.000004 9.626000 5.391150 -2.652010 -2.192480 -6.469440 -0.000000 -174.620000 -7.282400 -1.228940 39.081100 -0.000007 -0.000012 -0.129836 0.311302 22.639900 40.985400 -0.000006 -0.000013 -0.889608 6.547770 -66.313100 11.754300 -0.000000 0.000003 -0.000052 -0.000583 -16.600200 -2.192510 6.469440 -0.000001 179.600000 16.049900 -178.280000 -39.081100 -0.002282 -0.040193 -0.075179 0.215208 20.040200 -40.985400 0.000008 0.000006 3.662570 7.076610 -67.096900 -11.754300 -0.000006 -0.000006 -0.008512 -0.092164 -20.326600
